<svg xmlns="http://www.w3.org/2000/svg" xmlns:xlink="http://www.w3.org/1999/xlink" viewBox="0,0,256,256" width="50px" height="50px" fill-rule="nonzero"><g fill="#eeeeee" fill-rule="nonzero" stroke="none" stroke-width="1" stroke-linecap="butt" stroke-linejoin="miter" stroke-miterlimit="10" stroke-dasharray="" stroke-dashoffset="0" font-family="none" font-weight="none" font-size="none" text-anchor="none" style="mix-blend-mode: normal"><g transform="scale(5.12,5.12)"><path d="M7,2c-2.80078,0 -5,2.19922 -5,5v27c0,2.80078 2.19922,5 5,5h27c2.80078,0 5,-2.19922 5,-5v-27c0,-0.5 -0.08594,-1 -0.1875,-1.5l-19.71875,21.90625l-9.6875,-8.71875l1.28125,-1.5l8.3125,7.3125l18.6875,-20.8125c-0.89844,-1 -2.1875,-1.6875 -3.6875,-1.6875zM41,11v24c0,3.30078 -2.69922,6 -6,6h-24v2c0,2.80078 2.19922,5 5,5h27c2.80078,0 5,-2.19922 5,-5v-27c0,-2.80078 -2.19922,-5 -5,-5z"></path></g></g></svg>