<svg xmlns="http://www.w3.org/2000/svg" xmlns:xlink="http://www.w3.org/1999/xlink" viewBox="0,0,256,256" width="50px" height="50px" fill-rule="nonzero"><g fill="#eeeeee" fill-rule="nonzero" stroke="none" stroke-width="1" stroke-linecap="butt" stroke-linejoin="miter" stroke-miterlimit="10" stroke-dasharray="" stroke-dashoffset="0" font-family="none" font-weight="none" font-size="none" text-anchor="none" style="mix-blend-mode: normal"><g transform="scale(5.12,5.12)"><path d="M13,2c-0.553,0 -1,0.448 -1,1v44c0,0.358 0.19095,0.68919 0.50195,0.86719c0.311,0.178 0.69295,0.17609 1.00195,-0.00391l11.49609,-6.70508l11.49609,6.70508c0.155,0.091 0.32991,0.13672 0.50391,0.13672c0.172,0 0.34405,-0.04381 0.49805,-0.13281c0.311,-0.178 0.50195,-0.50919 0.50195,-0.86719v-13.23047c3.18383,0.6466 6.62567,-0.25458 9.08203,-2.71094c3.889,-3.889 3.889,-10.25163 0,-14.14062c-2.45635,-2.45635 -5.89822,-3.35947 -9.08203,-2.71289v-11.20508c0,-0.552 -0.447,-1 -1,-1zM40.01172,15.99805c2.05063,0 4.1027,0.77653 5.6582,2.33203c3.111,3.112 3.111,8.20345 0,11.31445c-3.111,3.111 -8.20345,3.112 -11.31445,0c-3.111,-3.112 -3.112,-8.20345 0,-11.31445c1.556,-1.5555 3.60563,-2.33203 5.65625,-2.33203zM36.54688,19.49805c-0.2475,0 -0.49503,0.10636 -0.70703,0.31836c-0.424,0.424 -0.424,0.99006 0,1.41406l2.75781,2.75781l-2.75781,2.75781c-0.424,0.424 -0.424,0.99006 0,1.41406c0.424,0.424 0.99006,0.424 1.41406,0l2.75781,-2.75781l2.75781,2.75781c0.424,0.424 0.99006,0.424 1.41406,0c0.424,-0.424 0.424,-0.99006 0,-1.41406l-2.75781,-2.75781l2.75781,-2.75781c0.424,-0.424 0.424,-0.99006 0,-1.41406c-0.424,-0.424 -0.99006,-0.424 -1.41406,0l-2.75781,2.75781l-2.75781,-2.75781c-0.212,-0.212 -0.45953,-0.31836 -0.70703,-0.31836z"></path></g></g></svg>