<svg xmlns="http://www.w3.org/2000/svg" xmlns:xlink="http://www.w3.org/1999/xlink" viewBox="0,0,256,256" width="50px" height="50px" fill-rule="nonzero"><g fill="#eeeeee" fill-rule="nonzero" stroke="none" stroke-width="1" stroke-linecap="butt" stroke-linejoin="miter" stroke-miterlimit="10" stroke-dasharray="" stroke-dashoffset="0" font-family="none" font-weight="none" font-size="none" text-anchor="none" style="mix-blend-mode: normal"><g transform="scale(5.12,5.12)"><path d="M24.71875,2c-0.62891,0 -1.24609,0.01563 -1.84375,0.0625c-0.07422,0.00391 -0.14453,0.02344 -0.21875,0.03125c-0.52344,0.04688 -1.03516,0.10938 -1.53125,0.1875c-0.53125,0.08594 -1.0625,0.1875 -1.5625,0.3125c-0.02344,0.00391 -0.04297,0.02734 -0.0625,0.03125c-1.05469,0.26953 -2.03125,0.625 -2.9375,1.0625c-0.91406,0.44141 -1.74219,0.98438 -2.5,1.59375c-0.375,0.30469 -0.72656,0.625 -1.0625,0.96875c-1.32812,1.35938 -2.33203,3.00781 -3,4.96875c-0.16016,0.47266 -0.31641,0.96094 -0.4375,1.46875c-0.10937,0.45313 -0.20312,0.92969 -0.28125,1.40625c-0.05078,0.30859 -0.08984,0.62109 -0.125,0.9375c-0.02734,0.25391 -0.07422,0.48828 -0.09375,0.75c-0.04687,0.58984 -0.0625,1.19531 -0.0625,1.8125c0,0.50781 0.08984,1.15234 0.1875,1.84375c0.10547,0.74609 0.25781,1.55469 0.4375,2.375c0.16016,0.73438 0.31641,1.44531 0.5,2.125c0.01953,0.07813 0.04297,0.17188 0.0625,0.25c0.125,0.44922 0.25391,0.90234 0.375,1.28125c-0.29297,0.25 -0.58984,0.41016 -0.875,0.84375c-0.48047,0.73438 -0.83203,1.76172 -0.6875,3c0.42188,3.57422 2.66406,4.85156 3.40625,5.21875c0.28516,1.67188 1.14844,3.73438 2.5625,5.84375c1.51563,2.26172 3.60938,4.43359 6.15625,5.65625c0.04688,0.02344 0.07813,0.07031 0.125,0.09375c0.91797,1.09766 2.21484,1.875 3.75,1.875c1.53516,0 2.83203,-0.77734 3.75,-1.875c0.04688,-0.02344 0.07813,-0.07031 0.125,-0.09375c2.53906,-1.22656 4.58984,-3.39453 6.09375,-5.65625c1.39844,-2.10547 2.24609,-4.17969 2.53125,-5.84375c0.73438,-0.34766 3.04297,-1.58984 3.46875,-5.1875c0.14453,-1.24219 -0.23437,-2.29297 -0.71875,-3.03125c-0.28906,-0.4375 -0.58203,-0.58984 -0.875,-0.84375c0.16406,-0.51953 0.35938,-1.10547 0.53125,-1.75c0.01172,-0.03906 0.01953,-0.08594 0.03125,-0.125c0.01953,-0.06641 0.04297,-0.14844 0.0625,-0.21875c0.17969,-0.70312 0.30469,-1.38281 0.4375,-2.0625c0.15234,-0.78516 0.28906,-1.55859 0.375,-2.3125c0.02734,-0.21875 0.04297,-0.44141 0.0625,-0.65625c0.03906,-0.39453 0.07422,-0.78125 0.09375,-1.1875c0.01953,-0.39062 0.03125,-0.77344 0.03125,-1.15625c0,-0.26953 -0.01172,-0.57812 -0.03125,-0.875c-0.00391,-0.04297 0.00391,-0.08203 0,-0.125c-0.01953,-0.24609 -0.0625,-0.48828 -0.09375,-0.75c-0.01953,-0.14453 -0.03906,-0.29297 -0.0625,-0.4375c-0.02344,-0.14453 -0.03516,-0.28906 -0.0625,-0.4375c-0.02344,-0.11719 -0.03516,-0.22656 -0.0625,-0.34375c-0.03516,-0.16406 -0.08203,-0.33594 -0.125,-0.5c-0.02734,-0.10547 -0.0625,-0.21094 -0.09375,-0.3125c-0.05078,-0.17578 -0.09766,-0.35547 -0.15625,-0.53125c-0.03125,-0.09766 -0.05859,-0.1875 -0.09375,-0.28125c-0.0625,-0.16797 -0.14844,-0.33203 -0.21875,-0.5c-0.11328,-0.26562 -0.23828,-0.52344 -0.375,-0.78125c-0.05469,-0.10547 -0.09766,-0.21094 -0.15625,-0.3125c-0.07812,-0.14062 -0.19141,-0.26953 -0.28125,-0.40625c-0.06641,-0.10156 -0.11719,-0.21484 -0.1875,-0.3125c-0.09375,-0.12891 -0.17969,-0.25391 -0.28125,-0.375c-0.07812,-0.09766 -0.16797,-0.1875 -0.25,-0.28125c-0.10156,-0.11328 -0.20312,-0.23828 -0.3125,-0.34375c-0.10156,-0.10156 -0.20703,-0.18359 -0.3125,-0.28125c-0.21484,-0.19531 -0.44922,-0.36328 -0.6875,-0.53125c-0.99609,-0.69922 -2.18359,-1.15625 -3.59375,-1.25c-0.27344,-0.40234 -0.70312,-0.91406 -1.28125,-1.4375c-0.22656,-0.20703 -0.46875,-0.42187 -0.75,-0.625c-0.03125,-0.02344 -0.0625,-0.03906 -0.09375,-0.0625c-0.03125,-0.01953 -0.0625,-0.04297 -0.09375,-0.0625c-0.27734,-0.1875 -0.57812,-0.35937 -0.90625,-0.53125c-1.00781,-0.53125 -2.24219,-0.98828 -3.8125,-1.1875c-0.07031,-0.00781 -0.14453,-0.02344 -0.21875,-0.03125c-0.05859,-0.00781 -0.12891,0.00781 -0.1875,0c-0.47266,-0.04687 -0.97266,-0.09375 -1.5,-0.09375zM32.5,14.375c0.97266,1.55078 2.5,4.48828 2.5,7.625c0.01953,1.66797 0.66406,4.44531 2.90625,4.71875c0.19922,0.14844 0.46484,0.37891 0.6875,0.71875c0.27734,0.42578 0.46484,0.9375 0.375,1.6875c-0.38281,3.22266 -2.625,3.84375 -2.625,3.84375c-0.375,0.12109 -0.64453,0.45313 -0.6875,0.84375c-0.11719,1.10547 -0.95312,3.34766 -2.34375,5.4375c-1.39062,2.08984 -3.30078,4.08203 -5.40625,5.0625c-0.16406,0.07422 -0.30469,0.19531 -0.40625,0.34375c-0.53906,0.80469 -1.45312,1.34375 -2.5,1.34375c-1.04687,0 -1.96094,-0.53906 -2.5,-1.34375c-0.10156,-0.14844 -0.24219,-0.26953 -0.40625,-0.34375c-2.11328,-0.98047 -4.03516,-2.97266 -5.4375,-5.0625c-1.40234,-2.08984 -2.26172,-4.33594 -2.375,-5.4375c-0.04687,-0.37109 -0.30078,-0.6875 -0.65625,-0.8125c0,0 -2.24609,-0.67578 -2.625,-3.90625c-0.08984,-0.75391 0.10156,-1.27344 0.375,-1.6875c0.11328,-0.17187 0.25,-0.3125 0.375,-0.4375c0.07813,0.01953 0.16797,0.03125 0.25,0.03125c1.97266,0 2.65625,-3.28516 3,-5c0.625,-3.12109 4.0625,-4 9,-4c4.65234,0 7.26563,-2.16016 8.5,-3.625zM19.5,27c-0.82812,0 -1.5,0.67188 -1.5,1.5c0,0.82813 0.67188,1.5 1.5,1.5c0.82813,0 1.5,-0.67187 1.5,-1.5c0,-0.82812 -0.67187,-1.5 -1.5,-1.5zM30.5,27c-0.82812,0 -1.5,0.67188 -1.5,1.5c0,0.82813 0.67188,1.5 1.5,1.5c0.82813,0 1.5,-0.67187 1.5,-1.5c0,-0.82812 -0.67187,-1.5 -1.5,-1.5z"></path></g></g></svg>