<svg xmlns="http://www.w3.org/2000/svg" xmlns:xlink="http://www.w3.org/1999/xlink" viewBox="0,0,256,256" width="50px" height="50px" fill-rule="nonzero"><g fill="#eeeeee" fill-rule="nonzero" stroke="none" stroke-width="1" stroke-linecap="butt" stroke-linejoin="miter" stroke-miterlimit="10" stroke-dasharray="" stroke-dashoffset="0" font-family="none" font-weight="none" font-size="none" text-anchor="none" style="mix-blend-mode: normal"><g transform="scale(5.12,5.12)"><path d="M1.9375,2.78125c-0.55078,0 -1,0.44922 -1,1v35.6875c0,2.61328 0.76172,4.71875 2.3125,6.25c2.46484,2.4375 5.99219,2.5 6.34375,2.5h31.78125c0.05469,0 0.39844,0.00781 0.875,-0.0625c-3.11328,-0.39453 -7.625,-2.53906 -7.625,-8.6875v-35.6875c0,-0.55078 -0.44531,-1 -1,-1zM36.625,9.5v29.96875c0,6.64453 6.41406,6.75 6.6875,6.75c0.53906,-0.00391 5,-0.20703 5.6875,-5.3125c0.04688,-0.43359 0.0625,-0.88672 0.0625,-1.375v-25.09375c0,-0.00391 0,-0.02734 0,-0.03125c-0.03516,-1.44922 -0.8125,-3.99219 -3.40625,-4.6875c-0.8125,0.19531 -1.48828,0.55859 -2,1.09375c-1.32422,1.38281 -1.28125,3.51172 -1.28125,3.53125v24.28125c0,0.55469 -0.44531,1 -1,1c-0.55469,0 -1,-0.44531 -1,-1v-24.25c-0.00391,-0.07422 -0.10156,-2.86328 1.75,-4.875zM7.21875,11h19.71875c0.55469,0 1,0.44922 1,1c0,0.55078 -0.44531,1 -1,1h-19.71875c-0.55078,0 -1,-0.44922 -1,-1c0,-0.55078 0.44922,-1 1,-1zM7.21875,15h19.71875c0.55469,0 1,0.44922 1,1c0,0.55078 -0.44531,1 -1,1h-19.71875c-0.55078,0 -1,-0.44922 -1,-1c0,-0.55078 0.44922,-1 1,-1zM7.6875,23h6.78125c0.55078,0 1,0.44922 1,1c0,0.55078 -0.44922,1 -1,1h-6.78125c-0.55078,0 -1,-0.44922 -1,-1c0,-0.55078 0.44922,-1 1,-1zM19.21875,23h7.71875c0.55469,0 1,0.44922 1,1c0,0.55078 -0.44531,1 -1,1h-7.71875c-0.55078,0 -1,-0.44922 -1,-1c0,-0.55078 0.44922,-1 1,-1zM7.6875,27h6.78125c0.55078,0 1,0.44531 1,1c0,0.55469 -0.44922,1 -1,1h-6.78125c-0.55078,0 -1,-0.44531 -1,-1c0,-0.55469 0.44922,-1 1,-1zM19.21875,27h7.71875c0.55469,0 1,0.44531 1,1c0,0.55469 -0.44531,1 -1,1h-7.71875c-0.55078,0 -1,-0.44531 -1,-1c0,-0.55469 0.44922,-1 1,-1zM19.21875,30.78125h7.71875c0.55469,0 1,0.44531 1,1c0,0.55469 -0.44531,1 -1,1h-7.71875c-0.55078,0 -1,-0.44531 -1,-1c0,-0.55469 0.44922,-1 1,-1zM7.6875,31h6.78125c0.55078,0 1,0.44531 1,1c0,0.55469 -0.44922,1 -1,1h-6.78125c-0.55078,0 -1,-0.44531 -1,-1c0,-0.55469 0.44922,-1 1,-1zM19.21875,34.78125h7.71875c0.55469,0 1,0.44531 1,1c0,0.55469 -0.44531,1 -1,1h-7.71875c-0.55078,0 -1,-0.44531 -1,-1c0,-0.55469 0.44922,-1 1,-1zM7.6875,35h6.78125c0.55078,0 1,0.44531 1,1c0,0.55469 -0.44922,1 -1,1h-6.78125c-0.55078,0 -1,-0.44531 -1,-1c0,-0.55469 0.44922,-1 1,-1zM19.21875,38.53125h7.71875c0.55469,0 1,0.44531 1,1c0,0.55469 -0.44531,1 -1,1h-7.71875c-0.55078,0 -1,-0.44531 -1,-1c0,-0.55469 0.44922,-1 1,-1zM7.6875,39h6.78125c0.55078,0 1,0.44531 1,1c0,0.55469 -0.44922,1 -1,1h-6.78125c-0.55078,0 -1,-0.44531 -1,-1c0,-0.55469 0.44922,-1 1,-1z"></path></g></g></svg>